<svg width="12" height="14" viewBox="0 0 12 14" fill="none" xmlns="http://www.w3.org/2000/svg">
<path d="M1.4977 12H10.4977L9.42895 4.5H2.56645L1.4977 12ZM5.9977 3C6.2102 3 6.38832 2.92812 6.53207 2.78437C6.67582 2.64062 6.7477 2.4625 6.7477 2.25C6.7477 2.0375 6.67582 1.85938 6.53207 1.71563C6.38832 1.57188 6.2102 1.5 5.9977 1.5C5.7852 1.5 5.60707 1.57188 5.46332 1.71563C5.31957 1.85938 5.2477 2.0375 5.2477 2.25C5.2477 2.4625 5.31957 2.64062 5.46332 2.78437C5.60707 2.92812 5.7852 3 5.9977 3ZM8.11645 3H9.42895C9.80395 3 10.1289 3.125 10.4039 3.375C10.6789 3.625 10.8477 3.93125 10.9102 4.29375L11.9789 11.7937C12.0414 12.2437 11.9258 12.6406 11.6321 12.9844C11.3383 13.3281 10.9602 13.5 10.4977 13.5H1.4977C1.0352 13.5 0.657072 13.3281 0.363322 12.9844C0.0695724 12.6406 -0.0460526 12.2437 0.0164474 11.7937L1.0852 4.29375C1.1477 3.93125 1.31645 3.625 1.59145 3.375C1.86645 3.125 2.19145 3 2.56645 3H3.87895C3.84145 2.875 3.8102 2.75313 3.7852 2.63438C3.7602 2.51562 3.7477 2.3875 3.7477 2.25C3.7477 1.625 3.96645 1.09375 4.40395 0.65625C4.84145 0.21875 5.3727 0 5.9977 0C6.6227 0 7.15395 0.21875 7.59145 0.65625C8.02895 1.09375 8.2477 1.625 8.2477 2.25C8.2477 2.3875 8.2352 2.51562 8.2102 2.63438C8.1852 2.75313 8.15395 2.875 8.11645 3ZM1.4977 12H10.4977H1.4977Z" fill="currentColor"/>
</svg>
